<svg xmlns="http://www.w3.org/2000/svg" xmlns:xlink="http://www.w3.org/1999/xlink" width="321" zoomAndPan="magnify" viewBox="0 0 240.75 141.750002" height="188" preserveAspectRatio="xMidYMid meet" version="1.0">
  <defs>
    <g />
    <clipPath id="edaeda59f6">
      <path d="M 0.0859375 0 L 240.414062 0 L 240.414062 141.5 L 0.0859375 141.5 Z M 0.0859375 0 " clip-rule="nonzero" />
    </clipPath>
    <clipPath id="6c0ab3ca95">
      <path d="M 103 40 L 140 40 L 140 77 L 103 77 Z M 103 40 " clip-rule="nonzero" />
    </clipPath>
    <clipPath id="6a7c6831da">
      <path d="M 131.007812 40.207031 L 139.570312 48.644531 L 109.683594 78.976562 L 101.121094 70.542969 Z M 131.007812 40.207031 " clip-rule="nonzero" />
    </clipPath>
    <clipPath id="ec493019d9">
      <path d="M 103.859375 73.238281 L 106.945312 76.277344 L 139.570312 48.644531 L 131.007812 40.207031 Z M 103.859375 73.238281 " clip-rule="nonzero" />
    </clipPath>
    <clipPath id="a7e25a800e">
      <path d="M 104 41 L 139 41 L 139 76 L 104 76 Z M 104 41 " clip-rule="nonzero" />
    </clipPath>
    <clipPath id="f396b7a2b9">
      <path d="M 131.800781 41.027344 L 138.734375 47.863281 L 108.914062 78.125 L 101.980469 71.292969 Z M 131.800781 41.027344 " clip-rule="nonzero" />
    </clipPath>
    <clipPath id="9af23aaf5d">
      <path d="M 104.738281 73.972656 L 106.195312 75.410156 L 138.734375 47.863281 L 131.800781 41.027344 Z M 104.738281 73.972656 " clip-rule="nonzero" />
    </clipPath>
    <clipPath id="c1f3c97a86">
      <path d="M 103 67 L 113 67 L 113 77 L 103 77 Z M 103 67 " clip-rule="nonzero" />
    </clipPath>
    <clipPath id="e3baf85ef6">
      <path d="M 109.441406 67.695312 L 112.449219 70.6875 L 106.945312 76.222656 L 103.9375 73.230469 Z M 109.441406 67.695312 " clip-rule="nonzero" />
    </clipPath>
  </defs>
  <g clip-path="url(#edaeda59f6)">
    <path fill="#ffffff" d="M 0.0859375 0 L 240.414062 0 L 240.414062 141.5 L 0.0859375 141.5 Z M 0.0859375 0 " fill-opacity="1" fill-rule="nonzero" />
    <path fill="#1d1f27" d="M 0.0859375 0 L 240.414062 0 L 240.414062 141.5 L 0.0859375 141.5 Z M 0.0859375 0 " fill-opacity="1" fill-rule="nonzero" />
  </g>
  <g fill="#ffffff" fill-opacity="1">
    <g transform="translate(68.119687, 96.460093)">
      <g>
        <path d="M 7.4375 0.359375 C 5.601562 0.359375 4.082031 -0.265625 2.875 -1.515625 C 1.550781 -2.878906 0.890625 -4.710938 0.890625 -7.015625 C 0.890625 -9.285156 1.550781 -11.101562 2.875 -12.46875 C 4.113281 -13.738281 5.632812 -14.375 7.4375 -14.375 C 9.25 -14.375 10.769531 -13.742188 12 -12.484375 C 13.3125 -11.140625 13.96875 -9.316406 13.96875 -7.015625 C 13.96875 -4.734375 13.3125 -2.910156 12 -1.546875 C 10.769531 -0.273438 9.25 0.359375 7.4375 0.359375 Z M 7.4375 -0.421875 C 8.644531 -0.421875 9.582031 -1.054688 10.25 -2.328125 C 10.851562 -3.515625 11.15625 -5.078125 11.15625 -7.015625 C 11.15625 -8.929688 10.851562 -10.484375 10.25 -11.671875 C 9.582031 -12.960938 8.644531 -13.609375 7.4375 -13.609375 C 6.226562 -13.609375 5.296875 -12.960938 4.640625 -11.671875 C 4.035156 -10.503906 3.734375 -8.953125 3.734375 -7.015625 C 3.734375 -5.066406 4.035156 -3.503906 4.640625 -2.328125 C 5.296875 -1.054688 6.226562 -0.421875 7.4375 -0.421875 Z M 7.4375 -0.421875 " />
      </g>
    </g>
  </g>
  <g fill="#ffffff" fill-opacity="1">
    <g transform="translate(82.983312, 96.460093)">
      <g>
        <path d="M 4.765625 0.296875 C 3.804688 0.296875 3.085938 0.015625 2.609375 -0.546875 C 2.085938 -1.179688 1.835938 -2.175781 1.859375 -3.53125 L 1.9375 -9.03125 L 0.515625 -9.296875 L 0.515625 -9.828125 L 4.25 -10.3125 L 4.46875 -10.109375 L 4.359375 -7.078125 L 4.359375 -3.40625 C 4.359375 -2.59375 4.492188 -2.019531 4.765625 -1.6875 C 5.035156 -1.351562 5.441406 -1.1875 5.984375 -1.1875 C 6.796875 -1.1875 7.578125 -1.5625 8.328125 -2.3125 L 8.359375 -9.046875 L 7.015625 -9.296875 L 7.015625 -9.78125 L 10.671875 -10.3125 L 10.875 -10.109375 L 10.828125 -7.078125 L 10.828125 -0.703125 L 12.109375 -0.5625 L 12.109375 0 L 8.484375 0.203125 L 8.34375 -1.6875 C 7.863281 -1.082031 7.328125 -0.609375 6.734375 -0.265625 C 6.085938 0.109375 5.429688 0.296875 4.765625 0.296875 Z M 4.765625 0.296875 " />
      </g>
    </g>
  </g>
  <g fill="#ffffff" fill-opacity="1">
    <g transform="translate(95.69115, 96.460093)">
      <g>
        <path d="M 0.703125 0 L 0.703125 -0.59375 L 2.078125 -0.75 C 2.109375 -2.1875 2.125 -3.421875 2.125 -4.453125 L 2.125 -14.046875 L 0.59375 -14.15625 L 0.59375 -14.6875 L 4.328125 -15.5 L 4.609375 -15.328125 L 4.546875 -12.3125 L 4.546875 -8.484375 C 5.679688 -9.773438 6.890625 -10.421875 8.171875 -10.421875 C 10.097656 -10.421875 11.0625 -9.1875 11.0625 -6.71875 L 11.0625 -4.453125 C 11.0625 -3.410156 11.078125 -2.171875 11.109375 -0.734375 L 12.390625 -0.59375 L 12.390625 0 L 7.203125 0 L 7.203125 -0.59375 L 8.578125 -0.75 C 8.597656 -2.164062 8.609375 -3.398438 8.609375 -4.453125 L 8.609375 -6.875 C 8.609375 -7.664062 8.476562 -8.238281 8.21875 -8.59375 C 7.976562 -8.914062 7.597656 -9.078125 7.078125 -9.078125 C 6.304688 -9.078125 5.472656 -8.671875 4.578125 -7.859375 L 4.578125 -4.453125 C 4.578125 -3.054688 4.597656 -1.816406 4.640625 -0.734375 L 5.84375 -0.59375 L 5.84375 0 Z M 0.703125 0 " />
      </g>
    </g>
  </g>
  <g fill="#ffffff" fill-opacity="1">
    <g transform="translate(108.625916, 96.460093)">
      <g>
        <path d="M 0.734375 0 L 0.734375 -0.59375 L 2.125 -0.75 C 2.144531 -2.1875 2.15625 -3.421875 2.15625 -4.453125 L 2.15625 -5.796875 C 2.15625 -6.765625 2.132812 -7.722656 2.09375 -8.671875 L 0.5625 -8.8125 L 0.5625 -9.328125 L 4.40625 -10.40625 L 4.671875 -10.234375 L 4.640625 -7.28125 L 4.640625 -4.453125 C 4.640625 -3.410156 4.648438 -2.171875 4.671875 -0.734375 L 5.9375 -0.59375 L 5.9375 0 Z M 3.328125 -12.53125 C 2.910156 -12.53125 2.554688 -12.660156 2.265625 -12.921875 C 1.972656 -13.191406 1.828125 -13.523438 1.828125 -13.921875 C 1.828125 -14.335938 1.972656 -14.675781 2.265625 -14.9375 C 2.554688 -15.207031 2.910156 -15.34375 3.328125 -15.34375 C 3.742188 -15.34375 4.097656 -15.207031 4.390625 -14.9375 C 4.679688 -14.675781 4.828125 -14.335938 4.828125 -13.921875 C 4.828125 -13.523438 4.679688 -13.191406 4.390625 -12.921875 C 4.097656 -12.660156 3.742188 -12.53125 3.328125 -12.53125 Z M 3.328125 -12.53125 " />
      </g>
    </g>
  </g>
  <g fill="#ffffff" fill-opacity="1">
    <g transform="translate(115.168938, 96.460093)">
      <g>
        <path d="M 0.84375 -4.6875 L 0.84375 -5.984375 L 6.09375 -5.984375 L 6.09375 -4.6875 Z M 0.84375 -4.6875 " />
      </g>
    </g>
  </g>
  <g fill="#ffffff" fill-opacity="1">
    <g transform="translate(122.090175, 96.460093)">
      <g>
        <path d="M 4.375 0.296875 C 3.132812 0.296875 1.96875 0.0078125 0.875 -0.5625 L 0.953125 -3.03125 L 2.046875 -3.03125 L 2.578125 -0.734375 C 3.054688 -0.535156 3.601562 -0.4375 4.21875 -0.4375 C 4.976562 -0.4375 5.550781 -0.570312 5.9375 -0.84375 C 6.332031 -1.125 6.53125 -1.53125 6.53125 -2.0625 C 6.53125 -2.488281 6.394531 -2.84375 6.125 -3.125 C 5.84375 -3.414062 5.335938 -3.679688 4.609375 -3.921875 L 3.578125 -4.25 C 1.828125 -4.8125 0.953125 -5.796875 0.953125 -7.203125 C 0.953125 -8.148438 1.296875 -8.914062 1.984375 -9.5 C 2.703125 -10.113281 3.691406 -10.421875 4.953125 -10.421875 C 6.003906 -10.421875 7.066406 -10.140625 8.140625 -9.578125 L 8 -7.296875 L 7.03125 -7.296875 L 6.453125 -9.34375 C 5.992188 -9.570312 5.515625 -9.6875 5.015625 -9.6875 C 4.398438 -9.6875 3.914062 -9.546875 3.5625 -9.265625 C 3.21875 -8.992188 3.046875 -8.625 3.046875 -8.15625 C 3.046875 -7.738281 3.175781 -7.40625 3.4375 -7.15625 C 3.71875 -6.863281 4.210938 -6.601562 4.921875 -6.375 L 5.90625 -6.078125 C 6.882812 -5.742188 7.597656 -5.320312 8.046875 -4.8125 C 8.484375 -4.3125 8.703125 -3.691406 8.703125 -2.953125 C 8.703125 -1.960938 8.332031 -1.179688 7.59375 -0.609375 C 6.8125 -0.00390625 5.738281 0.296875 4.375 0.296875 Z M 4.375 0.296875 " />
      </g>
    </g>
  </g>
  <g fill="#ffffff" fill-opacity="1">
    <g transform="translate(131.488674, 96.460093)">
      <g>
        <path d="M 3.578125 0.296875 C 2.765625 0.296875 2.109375 0.0703125 1.609375 -0.375 C 1.085938 -0.832031 0.828125 -1.453125 0.828125 -2.234375 C 0.828125 -3.035156 1.09375 -3.6875 1.625 -4.1875 C 2.195312 -4.707031 3.191406 -5.191406 4.609375 -5.640625 C 5.203125 -5.835938 5.890625 -6.023438 6.671875 -6.203125 L 6.671875 -7.171875 C 6.671875 -8.148438 6.53125 -8.828125 6.25 -9.203125 C 5.96875 -9.546875 5.46875 -9.71875 4.75 -9.71875 C 4.4375 -9.71875 4.109375 -9.679688 3.765625 -9.609375 L 3.5 -8.25 C 3.425781 -7.28125 3.015625 -6.796875 2.265625 -6.796875 C 1.628906 -6.796875 1.253906 -7.082031 1.140625 -7.65625 C 1.265625 -8.519531 1.703125 -9.195312 2.453125 -9.6875 C 3.242188 -10.175781 4.285156 -10.421875 5.578125 -10.421875 C 6.816406 -10.421875 7.710938 -10.128906 8.265625 -9.546875 C 8.816406 -8.972656 9.09375 -8.023438 9.09375 -6.703125 L 9.09375 -1.8125 C 9.09375 -1.0625 9.320312 -0.6875 9.78125 -0.6875 C 10.03125 -0.6875 10.316406 -0.894531 10.640625 -1.3125 L 10.96875 -1.015625 C 10.726562 -0.554688 10.429688 -0.222656 10.078125 -0.015625 C 9.742188 0.179688 9.320312 0.28125 8.8125 0.28125 C 7.707031 0.28125 7.019531 -0.269531 6.75 -1.375 C 6.175781 -0.769531 5.691406 -0.351562 5.296875 -0.125 C 4.804688 0.15625 4.234375 0.296875 3.578125 0.296875 Z M 4.71875 -0.921875 C 5.019531 -0.921875 5.3125 -1 5.59375 -1.15625 C 5.863281 -1.289062 6.222656 -1.550781 6.671875 -1.9375 L 6.671875 -5.65625 C 6.609375 -5.644531 6.53125 -5.617188 6.4375 -5.578125 C 5.832031 -5.398438 5.441406 -5.273438 5.265625 -5.203125 C 3.890625 -4.660156 3.203125 -3.785156 3.203125 -2.578125 C 3.203125 -2.035156 3.335938 -1.617188 3.609375 -1.328125 C 3.878906 -1.054688 4.25 -0.921875 4.71875 -0.921875 Z M 4.71875 -0.921875 " />
      </g>
    </g>
  </g>
  <g fill="#ffffff" fill-opacity="1">
    <g transform="translate(142.494571, 96.460093)">
      <g>
        <path d="M 0.703125 0 L 0.703125 -0.59375 L 2.078125 -0.75 C 2.109375 -2.1875 2.125 -3.421875 2.125 -4.453125 L 2.125 -5.8125 C 2.125 -7.09375 2.097656 -8.03125 2.046875 -8.625 L 0.546875 -8.78125 L 0.546875 -9.25 L 4.1875 -10.40625 L 4.453125 -10.234375 L 4.578125 -8.53125 C 5.671875 -9.789062 6.835938 -10.421875 8.078125 -10.421875 C 9.460938 -10.421875 10.335938 -9.765625 10.703125 -8.453125 C 11.816406 -9.765625 13.019531 -10.421875 14.3125 -10.421875 C 15.289062 -10.421875 16.019531 -10.117188 16.5 -9.515625 C 16.976562 -8.921875 17.21875 -7.988281 17.21875 -6.71875 L 17.21875 -4.453125 C 17.21875 -3.410156 17.226562 -2.171875 17.25 -0.734375 L 18.546875 -0.59375 L 18.546875 0 L 13.4375 0 L 13.4375 -0.59375 L 14.734375 -0.75 C 14.765625 -2.1875 14.78125 -3.421875 14.78125 -4.453125 L 14.78125 -6.75 C 14.78125 -7.613281 14.660156 -8.222656 14.421875 -8.578125 C 14.191406 -8.898438 13.816406 -9.0625 13.296875 -9.0625 C 12.503906 -9.0625 11.6875 -8.644531 10.84375 -7.8125 C 10.894531 -7.519531 10.921875 -7.164062 10.921875 -6.75 L 10.921875 -4.453125 C 10.921875 -3.054688 10.9375 -1.816406 10.96875 -0.734375 L 12.203125 -0.59375 L 12.203125 0 L 7.078125 0 L 7.078125 -0.59375 L 8.4375 -0.75 C 8.46875 -2.1875 8.484375 -3.421875 8.484375 -4.453125 L 8.484375 -6.734375 C 8.484375 -7.578125 8.363281 -8.179688 8.125 -8.546875 C 7.894531 -8.890625 7.519531 -9.0625 7 -9.0625 C 6.28125 -9.0625 5.484375 -8.640625 4.609375 -7.796875 L 4.609375 -4.453125 C 4.609375 -3.410156 4.625 -2.171875 4.65625 -0.734375 L 5.890625 -0.59375 L 5.890625 0 Z M 0.703125 0 " />
      </g>
    </g>
  </g>
  <g fill="#ffffff" fill-opacity="1">
    <g transform="translate(161.556332, 96.460093)">
      <g>
        <path d="M 3.578125 0.296875 C 2.765625 0.296875 2.109375 0.0703125 1.609375 -0.375 C 1.085938 -0.832031 0.828125 -1.453125 0.828125 -2.234375 C 0.828125 -3.035156 1.09375 -3.6875 1.625 -4.1875 C 2.195312 -4.707031 3.191406 -5.191406 4.609375 -5.640625 C 5.203125 -5.835938 5.890625 -6.023438 6.671875 -6.203125 L 6.671875 -7.171875 C 6.671875 -8.148438 6.53125 -8.828125 6.25 -9.203125 C 5.96875 -9.546875 5.46875 -9.71875 4.75 -9.71875 C 4.4375 -9.71875 4.109375 -9.679688 3.765625 -9.609375 L 3.5 -8.25 C 3.425781 -7.28125 3.015625 -6.796875 2.265625 -6.796875 C 1.628906 -6.796875 1.253906 -7.082031 1.140625 -7.65625 C 1.265625 -8.519531 1.703125 -9.195312 2.453125 -9.6875 C 3.242188 -10.175781 4.285156 -10.421875 5.578125 -10.421875 C 6.816406 -10.421875 7.710938 -10.128906 8.265625 -9.546875 C 8.816406 -8.972656 9.09375 -8.023438 9.09375 -6.703125 L 9.09375 -1.8125 C 9.09375 -1.0625 9.320312 -0.6875 9.78125 -0.6875 C 10.03125 -0.6875 10.316406 -0.894531 10.640625 -1.3125 L 10.96875 -1.015625 C 10.726562 -0.554688 10.429688 -0.222656 10.078125 -0.015625 C 9.742188 0.179688 9.320312 0.28125 8.8125 0.28125 C 7.707031 0.28125 7.019531 -0.269531 6.75 -1.375 C 6.175781 -0.769531 5.691406 -0.351562 5.296875 -0.125 C 4.804688 0.15625 4.234375 0.296875 3.578125 0.296875 Z M 4.71875 -0.921875 C 5.019531 -0.921875 5.3125 -1 5.59375 -1.15625 C 5.863281 -1.289062 6.222656 -1.550781 6.671875 -1.9375 L 6.671875 -5.65625 C 6.609375 -5.644531 6.53125 -5.617188 6.4375 -5.578125 C 5.832031 -5.398438 5.441406 -5.273438 5.265625 -5.203125 C 3.890625 -4.660156 3.203125 -3.785156 3.203125 -2.578125 C 3.203125 -2.035156 3.335938 -1.617188 3.609375 -1.328125 C 3.878906 -1.054688 4.25 -0.921875 4.71875 -0.921875 Z M 4.71875 -0.921875 " />
      </g>
    </g>
  </g>
  <g clip-path="url(#6c0ab3ca95)">
    <g clip-path="url(#6a7c6831da)">
      <g clip-path="url(#ec493019d9)">
        <path fill="#373636" d="M 131.007812 40.207031 L 139.570312 48.644531 L 109.683594 78.976562 L 101.121094 70.542969 Z M 131.007812 40.207031 " fill-opacity="1" fill-rule="nonzero" />
      </g>
    </g>
  </g>
  <g clip-path="url(#a7e25a800e)">
    <g clip-path="url(#f396b7a2b9)">
      <g clip-path="url(#9af23aaf5d)">
        <path fill="#915cfa" d="M 131.800781 41.027344 L 138.734375 47.863281 L 108.941406 78.101562 L 102.007812 71.265625 Z M 131.800781 41.027344 " fill-opacity="1" fill-rule="nonzero" />
      </g>
    </g>
  </g>
  <path stroke-linecap="butt" transform="matrix(-0.525579, 0.533186, -0.533186, -0.525579, 135.79776, 44.973538)" fill="none" stroke-linejoin="miter" d="M 0.000212349 0.997818 L 46.339552 0.998716 " stroke="#804aeb" stroke-width="2" stroke-opacity="1" stroke-miterlimit="4" />
  <g clip-path="url(#c1f3c97a86)">
    <g clip-path="url(#e3baf85ef6)">
      <path fill="#373636" d="M 109.441406 67.695312 L 112.449219 70.6875 L 106.945312 76.222656 L 103.9375 73.230469 Z M 109.441406 67.695312 " fill-opacity="1" fill-rule="nonzero" />
    </g>
  </g>
  <path stroke-linecap="butt" transform="matrix(-0.55075, 0.507144, -0.507144, -0.55075, 137.736971, 47.002577)" fill="none" stroke-linejoin="miter" d="M 0.000544147 0.998144 L 46.322641 0.997783 " stroke="#804aeb" stroke-width="2" stroke-opacity="1" stroke-miterlimit="4" />
  <path stroke-linecap="butt" transform="matrix(-0.501679, 0.555733, -0.555733, -0.501679, 133.935069, 43.08906)" fill="none" stroke-linejoin="miter" d="M -0.00104594 1.001718 L 46.360754 1.000009 " stroke="#804aeb" stroke-width="2" stroke-opacity="1" stroke-miterlimit="4" />
</svg>