<svg xmlns="http://www.w3.org/2000/svg" xmlns:xlink="http://www.w3.org/1999/xlink" width="321" zoomAndPan="magnify" viewBox="0 0 240.75 141.750002" height="188" preserveAspectRatio="xMidYMid meet" version="1.0">
  <defs>
    <g />
    <clipPath id="35c14dea10">
      <path d="M 0.0859375 0 L 240.414062 0 L 240.414062 141.5 L 0.0859375 141.5 Z M 0.0859375 0 " clip-rule="nonzero" />
    </clipPath>
    <clipPath id="25718f8b0d">
      <path d="M 47 51 L 84 51 L 84 88 L 47 88 Z M 47 51 " clip-rule="nonzero" />
    </clipPath>
    <clipPath id="e98c2aa450">
      <path d="M 74.671875 51.359375 L 83.230469 59.792969 L 53.34375 90.128906 L 44.78125 81.691406 Z M 74.671875 51.359375 " clip-rule="nonzero" />
    </clipPath>
    <clipPath id="bc4e271e2c">
      <path d="M 47.523438 84.390625 L 50.605469 87.429688 L 83.230469 59.792969 L 74.671875 51.359375 Z M 47.523438 84.390625 " clip-rule="nonzero" />
    </clipPath>
    <clipPath id="76f1dfe8ad">
      <path d="M 48 52 L 83 52 L 83 87 L 48 87 Z M 48 52 " clip-rule="nonzero" />
    </clipPath>
    <clipPath id="dcf0b7a366">
      <path d="M 75.460938 52.179688 L 82.398438 59.011719 L 52.578125 89.277344 L 45.640625 82.441406 Z M 75.460938 52.179688 " clip-rule="nonzero" />
    </clipPath>
    <clipPath id="f049eba4da">
      <path d="M 48.398438 85.121094 L 49.859375 86.558594 L 82.398438 59.011719 L 75.460938 52.179688 Z M 48.398438 85.121094 " clip-rule="nonzero" />
    </clipPath>
    <clipPath id="3208552e1d">
      <path d="M 47 78 L 57 78 L 57 88 L 47 88 Z M 47 78 " clip-rule="nonzero" />
    </clipPath>
    <clipPath id="ed3494de2c">
      <path d="M 53.105469 78.847656 L 56.113281 81.839844 L 50.605469 87.375 L 47.597656 84.382812 Z M 53.105469 78.847656 " clip-rule="nonzero" />
    </clipPath>
  </defs>
  <g clip-path="url(#35c14dea10)">
    <path fill="#ffffff" d="M 0.0859375 0 L 240.414062 0 L 240.414062 141.5 L 0.0859375 141.5 Z M 0.0859375 0 " fill-opacity="1" fill-rule="nonzero" />
    <path fill="#1d1f27" d="M 0.0859375 0 L 240.414062 0 L 240.414062 141.5 L 0.0859375 141.5 Z M 0.0859375 0 " fill-opacity="1" fill-rule="nonzero" />
  </g>
  <g fill="#ffffff" fill-opacity="1">
    <g transform="translate(87.344182, 72.345417)">
      <g>
        <path d="M 7.4375 0.359375 C 5.601562 0.359375 4.082031 -0.265625 2.875 -1.515625 C 1.550781 -2.878906 0.890625 -4.710938 0.890625 -7.015625 C 0.890625 -9.285156 1.550781 -11.101562 2.875 -12.46875 C 4.113281 -13.738281 5.632812 -14.375 7.4375 -14.375 C 9.25 -14.375 10.769531 -13.742188 12 -12.484375 C 13.3125 -11.140625 13.96875 -9.316406 13.96875 -7.015625 C 13.96875 -4.734375 13.3125 -2.910156 12 -1.546875 C 10.769531 -0.273438 9.25 0.359375 7.4375 0.359375 Z M 7.4375 -0.421875 C 8.644531 -0.421875 9.582031 -1.054688 10.25 -2.328125 C 10.851562 -3.515625 11.15625 -5.078125 11.15625 -7.015625 C 11.15625 -8.929688 10.851562 -10.484375 10.25 -11.671875 C 9.582031 -12.960938 8.644531 -13.609375 7.4375 -13.609375 C 6.226562 -13.609375 5.296875 -12.960938 4.640625 -11.671875 C 4.035156 -10.503906 3.734375 -8.953125 3.734375 -7.015625 C 3.734375 -5.066406 4.035156 -3.503906 4.640625 -2.328125 C 5.296875 -1.054688 6.226562 -0.421875 7.4375 -0.421875 Z M 7.4375 -0.421875 " />
      </g>
    </g>
  </g>
  <g fill="#ffffff" fill-opacity="1">
    <g transform="translate(102.207808, 72.345417)">
      <g>
        <path d="M 4.765625 0.296875 C 3.804688 0.296875 3.085938 0.015625 2.609375 -0.546875 C 2.085938 -1.179688 1.835938 -2.175781 1.859375 -3.53125 L 1.9375 -9.03125 L 0.515625 -9.296875 L 0.515625 -9.828125 L 4.25 -10.3125 L 4.46875 -10.109375 L 4.359375 -7.078125 L 4.359375 -3.40625 C 4.359375 -2.59375 4.492188 -2.019531 4.765625 -1.6875 C 5.035156 -1.351562 5.441406 -1.1875 5.984375 -1.1875 C 6.796875 -1.1875 7.578125 -1.5625 8.328125 -2.3125 L 8.359375 -9.046875 L 7.015625 -9.296875 L 7.015625 -9.78125 L 10.671875 -10.3125 L 10.875 -10.109375 L 10.828125 -7.078125 L 10.828125 -0.703125 L 12.109375 -0.5625 L 12.109375 0 L 8.484375 0.203125 L 8.34375 -1.6875 C 7.863281 -1.082031 7.328125 -0.609375 6.734375 -0.265625 C 6.085938 0.109375 5.429688 0.296875 4.765625 0.296875 Z M 4.765625 0.296875 " />
      </g>
    </g>
  </g>
  <g fill="#ffffff" fill-opacity="1">
    <g transform="translate(114.915645, 72.345417)">
      <g>
        <path d="M 0.703125 0 L 0.703125 -0.59375 L 2.078125 -0.75 C 2.109375 -2.1875 2.125 -3.421875 2.125 -4.453125 L 2.125 -14.046875 L 0.59375 -14.15625 L 0.59375 -14.6875 L 4.328125 -15.5 L 4.609375 -15.328125 L 4.546875 -12.3125 L 4.546875 -8.484375 C 5.679688 -9.773438 6.890625 -10.421875 8.171875 -10.421875 C 10.097656 -10.421875 11.0625 -9.1875 11.0625 -6.71875 L 11.0625 -4.453125 C 11.0625 -3.410156 11.078125 -2.171875 11.109375 -0.734375 L 12.390625 -0.59375 L 12.390625 0 L 7.203125 0 L 7.203125 -0.59375 L 8.578125 -0.75 C 8.597656 -2.164062 8.609375 -3.398438 8.609375 -4.453125 L 8.609375 -6.875 C 8.609375 -7.664062 8.476562 -8.238281 8.21875 -8.59375 C 7.976562 -8.914062 7.597656 -9.078125 7.078125 -9.078125 C 6.304688 -9.078125 5.472656 -8.671875 4.578125 -7.859375 L 4.578125 -4.453125 C 4.578125 -3.054688 4.597656 -1.816406 4.640625 -0.734375 L 5.84375 -0.59375 L 5.84375 0 Z M 0.703125 0 " />
      </g>
    </g>
  </g>
  <g fill="#ffffff" fill-opacity="1">
    <g transform="translate(127.850412, 72.345417)">
      <g>
        <path d="M 0.734375 0 L 0.734375 -0.59375 L 2.125 -0.75 C 2.144531 -2.1875 2.15625 -3.421875 2.15625 -4.453125 L 2.15625 -5.796875 C 2.15625 -6.765625 2.132812 -7.722656 2.09375 -8.671875 L 0.5625 -8.8125 L 0.5625 -9.328125 L 4.40625 -10.40625 L 4.671875 -10.234375 L 4.640625 -7.28125 L 4.640625 -4.453125 C 4.640625 -3.410156 4.648438 -2.171875 4.671875 -0.734375 L 5.9375 -0.59375 L 5.9375 0 Z M 3.328125 -12.53125 C 2.910156 -12.53125 2.554688 -12.660156 2.265625 -12.921875 C 1.972656 -13.191406 1.828125 -13.523438 1.828125 -13.921875 C 1.828125 -14.335938 1.972656 -14.675781 2.265625 -14.9375 C 2.554688 -15.207031 2.910156 -15.34375 3.328125 -15.34375 C 3.742188 -15.34375 4.097656 -15.207031 4.390625 -14.9375 C 4.679688 -14.675781 4.828125 -14.335938 4.828125 -13.921875 C 4.828125 -13.523438 4.679688 -13.191406 4.390625 -12.921875 C 4.097656 -12.660156 3.742188 -12.53125 3.328125 -12.53125 Z M 3.328125 -12.53125 " />
      </g>
    </g>
  </g>
  <g fill="#ffffff" fill-opacity="1">
    <g transform="translate(134.393433, 72.345417)">
      <g>
        <path d="M 0.84375 -4.6875 L 0.84375 -5.984375 L 6.09375 -5.984375 L 6.09375 -4.6875 Z M 0.84375 -4.6875 " />
      </g>
    </g>
  </g>
  <g fill="#ffffff" fill-opacity="1">
    <g transform="translate(141.314671, 72.345417)">
      <g>
        <path d="M 4.375 0.296875 C 3.132812 0.296875 1.96875 0.0078125 0.875 -0.5625 L 0.953125 -3.03125 L 2.046875 -3.03125 L 2.578125 -0.734375 C 3.054688 -0.535156 3.601562 -0.4375 4.21875 -0.4375 C 4.976562 -0.4375 5.550781 -0.570312 5.9375 -0.84375 C 6.332031 -1.125 6.53125 -1.53125 6.53125 -2.0625 C 6.53125 -2.488281 6.394531 -2.84375 6.125 -3.125 C 5.84375 -3.414062 5.335938 -3.679688 4.609375 -3.921875 L 3.578125 -4.25 C 1.828125 -4.8125 0.953125 -5.796875 0.953125 -7.203125 C 0.953125 -8.148438 1.296875 -8.914062 1.984375 -9.5 C 2.703125 -10.113281 3.691406 -10.421875 4.953125 -10.421875 C 6.003906 -10.421875 7.066406 -10.140625 8.140625 -9.578125 L 8 -7.296875 L 7.03125 -7.296875 L 6.453125 -9.34375 C 5.992188 -9.570312 5.515625 -9.6875 5.015625 -9.6875 C 4.398438 -9.6875 3.914062 -9.546875 3.5625 -9.265625 C 3.21875 -8.992188 3.046875 -8.625 3.046875 -8.15625 C 3.046875 -7.738281 3.175781 -7.40625 3.4375 -7.15625 C 3.71875 -6.863281 4.210938 -6.601562 4.921875 -6.375 L 5.90625 -6.078125 C 6.882812 -5.742188 7.597656 -5.320312 8.046875 -4.8125 C 8.484375 -4.3125 8.703125 -3.691406 8.703125 -2.953125 C 8.703125 -1.960938 8.332031 -1.179688 7.59375 -0.609375 C 6.8125 -0.00390625 5.738281 0.296875 4.375 0.296875 Z M 4.375 0.296875 " />
      </g>
    </g>
  </g>
  <g fill="#ffffff" fill-opacity="1">
    <g transform="translate(150.71317, 72.345417)">
      <g>
        <path d="M 3.578125 0.296875 C 2.765625 0.296875 2.109375 0.0703125 1.609375 -0.375 C 1.085938 -0.832031 0.828125 -1.453125 0.828125 -2.234375 C 0.828125 -3.035156 1.09375 -3.6875 1.625 -4.1875 C 2.195312 -4.707031 3.191406 -5.191406 4.609375 -5.640625 C 5.203125 -5.835938 5.890625 -6.023438 6.671875 -6.203125 L 6.671875 -7.171875 C 6.671875 -8.148438 6.53125 -8.828125 6.25 -9.203125 C 5.96875 -9.546875 5.46875 -9.71875 4.75 -9.71875 C 4.4375 -9.71875 4.109375 -9.679688 3.765625 -9.609375 L 3.5 -8.25 C 3.425781 -7.28125 3.015625 -6.796875 2.265625 -6.796875 C 1.628906 -6.796875 1.253906 -7.082031 1.140625 -7.65625 C 1.265625 -8.519531 1.703125 -9.195312 2.453125 -9.6875 C 3.242188 -10.175781 4.285156 -10.421875 5.578125 -10.421875 C 6.816406 -10.421875 7.710938 -10.128906 8.265625 -9.546875 C 8.816406 -8.972656 9.09375 -8.023438 9.09375 -6.703125 L 9.09375 -1.8125 C 9.09375 -1.0625 9.320312 -0.6875 9.78125 -0.6875 C 10.03125 -0.6875 10.316406 -0.894531 10.640625 -1.3125 L 10.96875 -1.015625 C 10.726562 -0.554688 10.429688 -0.222656 10.078125 -0.015625 C 9.742188 0.179688 9.320312 0.28125 8.8125 0.28125 C 7.707031 0.28125 7.019531 -0.269531 6.75 -1.375 C 6.175781 -0.769531 5.691406 -0.351562 5.296875 -0.125 C 4.804688 0.15625 4.234375 0.296875 3.578125 0.296875 Z M 4.71875 -0.921875 C 5.019531 -0.921875 5.3125 -1 5.59375 -1.15625 C 5.863281 -1.289062 6.222656 -1.550781 6.671875 -1.9375 L 6.671875 -5.65625 C 6.609375 -5.644531 6.53125 -5.617188 6.4375 -5.578125 C 5.832031 -5.398438 5.441406 -5.273438 5.265625 -5.203125 C 3.890625 -4.660156 3.203125 -3.785156 3.203125 -2.578125 C 3.203125 -2.035156 3.335938 -1.617188 3.609375 -1.328125 C 3.878906 -1.054688 4.25 -0.921875 4.71875 -0.921875 Z M 4.71875 -0.921875 " />
      </g>
    </g>
  </g>
  <g fill="#ffffff" fill-opacity="1">
    <g transform="translate(161.719067, 72.345417)">
      <g>
        <path d="M 0.703125 0 L 0.703125 -0.59375 L 2.078125 -0.75 C 2.109375 -2.1875 2.125 -3.421875 2.125 -4.453125 L 2.125 -5.8125 C 2.125 -7.09375 2.097656 -8.03125 2.046875 -8.625 L 0.546875 -8.78125 L 0.546875 -9.25 L 4.1875 -10.40625 L 4.453125 -10.234375 L 4.578125 -8.53125 C 5.671875 -9.789062 6.835938 -10.421875 8.078125 -10.421875 C 9.460938 -10.421875 10.335938 -9.765625 10.703125 -8.453125 C 11.816406 -9.765625 13.019531 -10.421875 14.3125 -10.421875 C 15.289062 -10.421875 16.019531 -10.117188 16.5 -9.515625 C 16.976562 -8.921875 17.21875 -7.988281 17.21875 -6.71875 L 17.21875 -4.453125 C 17.21875 -3.410156 17.226562 -2.171875 17.25 -0.734375 L 18.546875 -0.59375 L 18.546875 0 L 13.4375 0 L 13.4375 -0.59375 L 14.734375 -0.75 C 14.765625 -2.1875 14.78125 -3.421875 14.78125 -4.453125 L 14.78125 -6.75 C 14.78125 -7.613281 14.660156 -8.222656 14.421875 -8.578125 C 14.191406 -8.898438 13.816406 -9.0625 13.296875 -9.0625 C 12.503906 -9.0625 11.6875 -8.644531 10.84375 -7.8125 C 10.894531 -7.519531 10.921875 -7.164062 10.921875 -6.75 L 10.921875 -4.453125 C 10.921875 -3.054688 10.9375 -1.816406 10.96875 -0.734375 L 12.203125 -0.59375 L 12.203125 0 L 7.078125 0 L 7.078125 -0.59375 L 8.4375 -0.75 C 8.46875 -2.1875 8.484375 -3.421875 8.484375 -4.453125 L 8.484375 -6.734375 C 8.484375 -7.578125 8.363281 -8.179688 8.125 -8.546875 C 7.894531 -8.890625 7.519531 -9.0625 7 -9.0625 C 6.28125 -9.0625 5.484375 -8.640625 4.609375 -7.796875 L 4.609375 -4.453125 C 4.609375 -3.410156 4.625 -2.171875 4.65625 -0.734375 L 5.890625 -0.59375 L 5.890625 0 Z M 0.703125 0 " />
      </g>
    </g>
  </g>
  <g fill="#ffffff" fill-opacity="1">
    <g transform="translate(180.780828, 72.345417)">
      <g>
        <path d="M 3.578125 0.296875 C 2.765625 0.296875 2.109375 0.0703125 1.609375 -0.375 C 1.085938 -0.832031 0.828125 -1.453125 0.828125 -2.234375 C 0.828125 -3.035156 1.09375 -3.6875 1.625 -4.1875 C 2.195312 -4.707031 3.191406 -5.191406 4.609375 -5.640625 C 5.203125 -5.835938 5.890625 -6.023438 6.671875 -6.203125 L 6.671875 -7.171875 C 6.671875 -8.148438 6.53125 -8.828125 6.25 -9.203125 C 5.96875 -9.546875 5.46875 -9.71875 4.75 -9.71875 C 4.4375 -9.71875 4.109375 -9.679688 3.765625 -9.609375 L 3.5 -8.25 C 3.425781 -7.28125 3.015625 -6.796875 2.265625 -6.796875 C 1.628906 -6.796875 1.253906 -7.082031 1.140625 -7.65625 C 1.265625 -8.519531 1.703125 -9.195312 2.453125 -9.6875 C 3.242188 -10.175781 4.285156 -10.421875 5.578125 -10.421875 C 6.816406 -10.421875 7.710938 -10.128906 8.265625 -9.546875 C 8.816406 -8.972656 9.09375 -8.023438 9.09375 -6.703125 L 9.09375 -1.8125 C 9.09375 -1.0625 9.320312 -0.6875 9.78125 -0.6875 C 10.03125 -0.6875 10.316406 -0.894531 10.640625 -1.3125 L 10.96875 -1.015625 C 10.726562 -0.554688 10.429688 -0.222656 10.078125 -0.015625 C 9.742188 0.179688 9.320312 0.28125 8.8125 0.28125 C 7.707031 0.28125 7.019531 -0.269531 6.75 -1.375 C 6.175781 -0.769531 5.691406 -0.351562 5.296875 -0.125 C 4.804688 0.15625 4.234375 0.296875 3.578125 0.296875 Z M 4.71875 -0.921875 C 5.019531 -0.921875 5.3125 -1 5.59375 -1.15625 C 5.863281 -1.289062 6.222656 -1.550781 6.671875 -1.9375 L 6.671875 -5.65625 C 6.609375 -5.644531 6.53125 -5.617188 6.4375 -5.578125 C 5.832031 -5.398438 5.441406 -5.273438 5.265625 -5.203125 C 3.890625 -4.660156 3.203125 -3.785156 3.203125 -2.578125 C 3.203125 -2.035156 3.335938 -1.617188 3.609375 -1.328125 C 3.878906 -1.054688 4.25 -0.921875 4.71875 -0.921875 Z M 4.71875 -0.921875 " />
      </g>
    </g>
  </g>
  <g fill="#ffffff" fill-opacity="1">
    <g transform="translate(120.363331, 84.674255)">
      <g>
        <path d="M 0.65625 0.4375 L 0.421875 0.015625 C 0.734375 0.046875 1.101562 0.0664062 1.53125 0.078125 L 3.640625 0.078125 L 3.640625 -3.046875 L 2.515625 -3.046875 C 2.117188 -3.046875 1.703125 -3.007812 1.265625 -2.9375 L 1.0625 -3.359375 C 1.363281 -3.316406 1.734375 -3.289062 2.171875 -3.28125 L 3.640625 -3.28125 L 3.640625 -6.046875 L 2.234375 -6.046875 C 1.835938 -6.035156 1.414062 -5.992188 0.96875 -5.921875 L 0.765625 -6.34375 C 1.066406 -6.3125 1.4375 -6.289062 1.875 -6.28125 L 5.9375 -6.28125 L 6.203125 -6.65625 C 6.222656 -6.6875 6.257812 -6.734375 6.3125 -6.796875 C 6.425781 -6.953125 6.5 -7.03125 6.53125 -7.03125 C 6.582031 -7.03125 6.757812 -6.898438 7.0625 -6.640625 C 7.375 -6.390625 7.53125 -6.234375 7.53125 -6.171875 C 7.507812 -6.085938 7.4375 -6.046875 7.3125 -6.046875 L 4.671875 -6.046875 L 4.671875 -3.28125 L 5.71875 -3.28125 L 5.96875 -3.640625 C 5.988281 -3.671875 6.023438 -3.71875 6.078125 -3.78125 C 6.191406 -3.925781 6.265625 -4 6.296875 -4 C 6.359375 -4 6.535156 -3.875 6.828125 -3.625 C 7.117188 -3.382812 7.265625 -3.234375 7.265625 -3.171875 C 7.234375 -3.085938 7.15625 -3.046875 7.03125 -3.046875 L 4.671875 -3.046875 L 4.671875 0.078125 L 6.28125 0.078125 L 6.546875 -0.296875 C 6.566406 -0.316406 6.601562 -0.359375 6.65625 -0.421875 C 6.78125 -0.585938 6.859375 -0.671875 6.890625 -0.671875 C 6.941406 -0.671875 7.125 -0.539062 7.4375 -0.28125 C 7.75 -0.03125 7.90625 0.125 7.90625 0.1875 C 7.882812 0.28125 7.804688 0.328125 7.671875 0.328125 L 1.90625 0.328125 C 1.507812 0.328125 1.09375 0.363281 0.65625 0.4375 Z M 0.65625 0.4375 " />
      </g>
    </g>
  </g>
  <g fill="#ffffff" fill-opacity="1">
    <g transform="translate(135.389819, 84.674255)">
      <g>
        <path d="M 0.421875 0.640625 L 0.34375 0.53125 C 1.09375 0.03125 1.664062 -0.65625 2.0625 -1.53125 C 1.84375 -1.769531 1.640625 -1.953125 1.453125 -2.078125 C 1.421875 -1.929688 1.378906 -1.785156 1.328125 -1.640625 C 1.253906 -1.578125 1.140625 -1.539062 0.984375 -1.53125 C 0.828125 -1.519531 0.65625 -1.546875 0.46875 -1.609375 C 0.71875 -2.390625 0.984375 -3.441406 1.265625 -4.765625 L 0.984375 -4.765625 C 0.847656 -4.765625 0.695312 -4.726562 0.53125 -4.65625 L 0.3125 -5.078125 C 0.5 -5.035156 0.726562 -5.007812 1 -5 L 1.296875 -5 C 1.304688 -5.039062 1.316406 -5.097656 1.328125 -5.171875 C 1.359375 -5.316406 1.382812 -5.425781 1.40625 -5.5 C 1.53125 -6.132812 1.582031 -6.679688 1.5625 -7.140625 C 2.125 -7.003906 2.476562 -6.90625 2.625 -6.84375 C 2.726562 -6.789062 2.726562 -6.742188 2.625 -6.703125 L 2.46875 -6.640625 C 2.425781 -6.367188 2.316406 -5.820312 2.140625 -5 L 2.640625 -5 L 2.859375 -5.25 C 2.867188 -5.257812 2.882812 -5.28125 2.90625 -5.3125 C 3.007812 -5.4375 3.082031 -5.5 3.125 -5.5 C 3.175781 -5.5 3.320312 -5.390625 3.5625 -5.171875 C 3.800781 -4.960938 3.921875 -4.828125 3.921875 -4.765625 C 3.867188 -4.679688 3.765625 -4.628906 3.609375 -4.609375 C 3.484375 -3.378906 3.25 -2.40625 2.90625 -1.6875 C 3.320312 -1.414062 3.59375 -1.101562 3.71875 -0.75 C 3.820312 -0.4375 3.796875 -0.191406 3.640625 -0.015625 C 3.484375 0.148438 3.28125 0.15625 3.03125 0 C 2.925781 -0.320312 2.75 -0.65625 2.5 -1 C 2.019531 -0.300781 1.328125 0.242188 0.421875 0.640625 Z M 5.1875 0.4375 C 4.738281 0.4375 4.441406 0.378906 4.296875 0.265625 C 4.148438 0.148438 4.078125 -0.078125 4.078125 -0.421875 L 4.078125 -2.78125 C 4.078125 -3.476562 4.039062 -4.046875 3.96875 -4.484375 L 5.09375 -4.03125 L 6.484375 -4.03125 L 6.484375 -6.109375 L 5.015625 -6.109375 C 4.617188 -6.109375 4.203125 -6.070312 3.765625 -6 L 3.546875 -6.421875 C 3.847656 -6.378906 4.21875 -6.351562 4.65625 -6.34375 L 6.40625 -6.34375 L 6.609375 -6.59375 C 6.628906 -6.601562 6.648438 -6.628906 6.671875 -6.671875 C 6.765625 -6.785156 6.828125 -6.84375 6.859375 -6.84375 C 6.921875 -6.84375 7.082031 -6.738281 7.34375 -6.53125 C 7.601562 -6.320312 7.734375 -6.1875 7.734375 -6.125 C 7.660156 -6.039062 7.550781 -5.984375 7.40625 -5.953125 L 7.40625 -5.046875 C 7.425781 -4.285156 7.445312 -3.695312 7.46875 -3.28125 C 7.4375 -3.226562 7.328125 -3.171875 7.140625 -3.109375 C 6.953125 -3.035156 6.785156 -3 6.640625 -3 C 6.515625 -3 6.453125 -3.054688 6.453125 -3.171875 C 6.453125 -3.222656 6.457031 -3.289062 6.46875 -3.375 C 6.46875 -3.4375 6.472656 -3.488281 6.484375 -3.53125 L 6.484375 -3.8125 L 5 -3.8125 L 5 -0.640625 C 5 -0.566406 5.019531 -0.515625 5.0625 -0.484375 C 5.113281 -0.453125 5.210938 -0.4375 5.359375 -0.4375 L 6.21875 -0.4375 C 6.613281 -0.4375 6.851562 -0.441406 6.9375 -0.453125 C 7.03125 -0.453125 7.109375 -0.492188 7.171875 -0.578125 C 7.234375 -0.710938 7.363281 -1.132812 7.5625 -1.84375 L 7.65625 -1.84375 L 7.671875 -0.53125 C 7.898438 -0.445312 8.015625 -0.316406 8.015625 -0.140625 C 8.015625 0.078125 7.882812 0.226562 7.625 0.3125 C 7.351562 0.394531 6.851562 0.4375 6.125 0.4375 Z M 2.25 -2.046875 C 2.5 -2.785156 2.65625 -3.691406 2.71875 -4.765625 L 2.09375 -4.765625 C 1.863281 -3.734375 1.671875 -2.910156 1.515625 -2.296875 C 1.773438 -2.222656 2.019531 -2.140625 2.25 -2.046875 Z M 2.25 -2.046875 " />
      </g>
    </g>
  </g>
  <g fill="#ffffff" fill-opacity="1">
    <g transform="translate(150.416307, 84.674255)">
      <g>
        <path d="M 1.65625 0.734375 C 1.476562 0.734375 1.390625 0.675781 1.390625 0.5625 C 1.390625 0.53125 1.390625 0.484375 1.390625 0.421875 C 1.429688 -0.203125 1.457031 -0.820312 1.46875 -1.4375 L 1.46875 -2.515625 C 1.195312 -2.046875 0.851562 -1.609375 0.4375 -1.203125 L 0.34375 -1.3125 C 0.84375 -2.164062 1.195312 -3.328125 1.40625 -4.796875 L 1.09375 -4.796875 C 0.925781 -4.785156 0.753906 -4.742188 0.578125 -4.671875 L 0.375 -5.09375 C 0.582031 -5.0625 0.832031 -5.035156 1.125 -5.015625 L 1.46875 -5.015625 L 1.46875 -5.40625 C 1.46875 -6.101562 1.429688 -6.671875 1.359375 -7.109375 C 1.953125 -6.984375 2.328125 -6.882812 2.484375 -6.8125 C 2.585938 -6.757812 2.597656 -6.707031 2.515625 -6.65625 L 2.359375 -6.546875 L 2.359375 -5.015625 L 2.453125 -5.015625 L 2.640625 -5.328125 C 2.648438 -5.347656 2.664062 -5.378906 2.6875 -5.421875 C 2.78125 -5.578125 2.847656 -5.65625 2.890625 -5.65625 C 2.941406 -5.65625 3.066406 -5.546875 3.265625 -5.328125 C 3.472656 -5.117188 3.578125 -4.984375 3.578125 -4.921875 C 3.546875 -4.835938 3.472656 -4.796875 3.359375 -4.796875 L 2.359375 -4.796875 L 2.359375 -4 C 2.765625 -3.832031 3.050781 -3.628906 3.21875 -3.390625 L 3.203125 -3.46875 L 4.9375 -3.46875 L 4.9375 -4.34375 L 4.484375 -4.34375 C 4.234375 -4.34375 3.960938 -4.304688 3.671875 -4.234375 L 3.46875 -4.640625 C 3.738281 -4.609375 4.070312 -4.585938 4.46875 -4.578125 L 4.9375 -4.578125 L 4.9375 -5.375 L 4.40625 -5.375 C 4.101562 -5.363281 3.785156 -5.320312 3.453125 -5.25 L 3.234375 -5.6875 C 3.546875 -5.644531 3.914062 -5.617188 4.34375 -5.609375 L 5.6875 -5.609375 C 5.851562 -6.109375 5.957031 -6.628906 6 -7.171875 C 6.5625 -7.015625 6.914062 -6.894531 7.0625 -6.8125 C 7.164062 -6.757812 7.175781 -6.71875 7.09375 -6.6875 L 6.9375 -6.625 C 6.613281 -6.269531 6.257812 -5.929688 5.875 -5.609375 L 6.578125 -5.609375 L 6.796875 -5.90625 C 6.816406 -5.925781 6.84375 -5.957031 6.875 -6 C 6.96875 -6.125 7.03125 -6.1875 7.0625 -6.1875 C 7.125 -6.1875 7.269531 -6.085938 7.5 -5.890625 C 7.738281 -5.691406 7.859375 -5.5625 7.859375 -5.5 C 7.835938 -5.414062 7.765625 -5.375 7.640625 -5.375 L 5.828125 -5.375 L 5.828125 -4.578125 L 6.4375 -4.578125 L 6.640625 -4.875 C 6.648438 -4.894531 6.671875 -4.925781 6.703125 -4.96875 C 6.796875 -5.101562 6.863281 -5.171875 6.90625 -5.171875 C 6.957031 -5.171875 7.097656 -5.070312 7.328125 -4.875 C 7.554688 -4.675781 7.671875 -4.546875 7.671875 -4.484375 C 7.660156 -4.390625 7.59375 -4.34375 7.46875 -4.34375 L 5.828125 -4.34375 L 5.828125 -3.46875 L 6.671875 -3.46875 L 6.890625 -3.78125 C 6.898438 -3.800781 6.921875 -3.835938 6.953125 -3.890625 C 7.054688 -4.023438 7.125 -4.09375 7.15625 -4.09375 C 7.21875 -4.09375 7.363281 -3.984375 7.59375 -3.765625 C 7.832031 -3.554688 7.953125 -3.421875 7.953125 -3.359375 C 7.941406 -3.273438 7.875 -3.234375 7.75 -3.234375 L 5.828125 -3.234375 L 5.828125 -3.046875 C 5.921875 -2.585938 6.078125 -2.191406 6.296875 -1.859375 C 6.597656 -2.335938 6.804688 -2.75 6.921875 -3.09375 C 7.359375 -2.8125 7.628906 -2.617188 7.734375 -2.515625 C 7.816406 -2.429688 7.8125 -2.382812 7.71875 -2.375 L 7.5625 -2.359375 C 7.28125 -2.148438 6.898438 -1.925781 6.421875 -1.6875 C 6.785156 -1.207031 7.328125 -0.859375 8.046875 -0.640625 L 8.046875 -0.5625 C 7.878906 -0.5 7.734375 -0.382812 7.609375 -0.21875 C 7.492188 -0.0625 7.414062 0.125 7.375 0.34375 C 6.9375 0.0390625 6.609375 -0.320312 6.390625 -0.75 C 6.128906 -1.207031 5.941406 -1.816406 5.828125 -2.578125 L 5.828125 -0.328125 C 5.828125 0.00390625 5.765625 0.242188 5.640625 0.390625 C 5.472656 0.578125 5.171875 0.6875 4.734375 0.71875 C 4.710938 0.4375 4.664062 0.242188 4.59375 0.140625 C 4.488281 -0.00390625 4.296875 -0.101562 4.015625 -0.15625 L 4.015625 -0.265625 C 4.265625 -0.242188 4.519531 -0.222656 4.78125 -0.203125 C 4.882812 -0.203125 4.9375 -0.253906 4.9375 -0.359375 L 4.9375 -1.40625 C 4.570312 -0.988281 4.132812 -0.515625 3.625 0.015625 C 3.613281 0.128906 3.5625 0.210938 3.46875 0.265625 L 2.8125 -0.640625 C 3.28125 -0.804688 3.988281 -1.101562 4.9375 -1.53125 L 4.9375 -3.234375 L 3.328125 -3.234375 C 3.421875 -3.046875 3.4375 -2.875 3.375 -2.71875 C 3.320312 -2.5625 3.226562 -2.46875 3.09375 -2.4375 C 2.945312 -2.40625 2.804688 -2.457031 2.671875 -2.59375 C 2.671875 -2.925781 2.566406 -3.316406 2.359375 -3.765625 L 2.359375 -1.546875 C 2.367188 -0.859375 2.390625 -0.203125 2.421875 0.421875 C 2.390625 0.492188 2.296875 0.5625 2.140625 0.625 C 1.984375 0.695312 1.820312 0.734375 1.65625 0.734375 Z M 4.375 -1.609375 C 4.207031 -1.546875 4.039062 -1.585938 3.875 -1.734375 C 3.882812 -1.921875 3.84375 -2.128906 3.75 -2.359375 C 3.675781 -2.566406 3.578125 -2.75 3.453125 -2.90625 L 3.53125 -2.953125 C 3.945312 -2.847656 4.253906 -2.695312 4.453125 -2.5 C 4.617188 -2.320312 4.679688 -2.140625 4.640625 -1.953125 C 4.609375 -1.773438 4.519531 -1.660156 4.375 -1.609375 Z M 4.796875 -5.65625 C 4.617188 -5.59375 4.441406 -5.632812 4.265625 -5.78125 C 4.253906 -6.164062 4.109375 -6.582031 3.828125 -7.03125 L 3.890625 -7.078125 C 4.335938 -6.972656 4.660156 -6.8125 4.859375 -6.59375 C 5.035156 -6.414062 5.109375 -6.226562 5.078125 -6.03125 C 5.046875 -5.84375 4.953125 -5.71875 4.796875 -5.65625 Z M 4.796875 -5.65625 " />
      </g>
    </g>
  </g>
  <g clip-path="url(#25718f8b0d)">
    <g clip-path="url(#e98c2aa450)">
      <g clip-path="url(#bc4e271e2c)">
        <path fill="#373636" d="M 74.671875 51.359375 L 83.230469 59.792969 L 53.34375 90.128906 L 44.78125 81.691406 Z M 74.671875 51.359375 " fill-opacity="1" fill-rule="nonzero" />
      </g>
    </g>
  </g>
  <g clip-path="url(#76f1dfe8ad)">
    <g clip-path="url(#dcf0b7a366)">
      <g clip-path="url(#f049eba4da)">
        <path fill="#915cfa" d="M 75.460938 52.179688 L 82.398438 59.011719 L 52.605469 89.25 L 45.667969 82.414062 Z M 75.460938 52.179688 " fill-opacity="1" fill-rule="nonzero" />
      </g>
    </g>
  </g>
  <path stroke-linecap="butt" transform="matrix(-0.525579, 0.533186, -0.533186, -0.525579, 79.459484, 56.123696)" fill="none" stroke-linejoin="miter" d="M 0.0000462356 1.000923 L 46.339386 1.00182 " stroke="#804aeb" stroke-width="2" stroke-opacity="1" stroke-miterlimit="4" />
  <g clip-path="url(#3208552e1d)">
    <g clip-path="url(#ed3494de2c)">
      <path fill="#373636" d="M 53.105469 78.847656 L 56.113281 81.839844 L 50.609375 87.371094 L 47.601562 84.378906 Z M 53.105469 78.847656 " fill-opacity="1" fill-rule="nonzero" />
    </g>
  </g>
  <path stroke-linecap="butt" transform="matrix(-0.55075, 0.507144, -0.507144, -0.55075, 81.398688, 58.152792)" fill="none" stroke-linejoin="miter" d="M 0.000469285 1.001303 L 46.322566 1.000941 " stroke="#804aeb" stroke-width="2" stroke-opacity="1" stroke-miterlimit="4" />
  <path stroke-linecap="butt" transform="matrix(-0.501679, 0.555733, -0.555733, -0.501679, 77.5968, 54.239256)" fill="none" stroke-linejoin="miter" d="M -0.00100298 0.997484 L 46.356924 0.999272 " stroke="#804aeb" stroke-width="2" stroke-opacity="1" stroke-miterlimit="4" />
</svg>